<?xml version="1.0" encoding="UTF-8" standalone="no"?>
<!DOCTYPE svg PUBLIC "-//W3C//DTD SVG 20010904//EN"
              "http://www.w3.org/TR/2001/REC-SVG-20010904/DTD/svg10.dtd">

<svg xmlns="http://www.w3.org/2000/svg"
     width="114.3mm" height="114.3mm"
     viewBox="0 0 1350 1350">
  <path id="Sélection"
        fill="#333333" stroke="#333333" stroke-width="1"
        d="M 205.00,742.00
           C 205.00,742.00 247.85,785.15 247.85,785.15
             247.85,785.15 345.72,883.05 345.72,883.05
             345.72,883.05 428.72,966.05 428.72,966.05
             428.72,966.05 486.42,1023.85 486.42,1023.85
             500.07,1037.78 511.75,1047.64 512.00,1069.00
             512.31,1096.41 492.14,1119.68 464.00,1120.00
             437.41,1120.30 426.90,1105.46 409.72,1088.28
             409.72,1088.28 361.58,1040.15 361.58,1040.15
             361.58,1040.15 288.15,966.85 288.15,966.85
             288.15,966.85 119.42,798.13 119.42,798.13
             119.42,798.13 80.15,758.85 80.15,758.85
             80.15,758.85 61.83,740.43 61.83,740.43
             61.83,740.43 46.17,727.83 46.17,727.83
             37.73,719.39 32.14,705.93 32.00,694.00
             31.71,668.39 46.19,654.81 63.00,638.00
             63.00,638.00 115.58,585.72 115.58,585.72
             115.58,585.72 287.72,413.58 287.72,413.58
             287.72,413.58 380.00,321.04 380.00,321.04
             380.00,321.04 441.00,260.00 441.00,260.00
             457.66,243.34 468.56,229.72 494.00,230.00
             519.99,230.30 541.70,252.01 542.00,278.00
             542.29,303.92 527.94,315.06 511.00,332.00
             511.00,332.00 446.00,397.00 446.00,397.00
             446.00,397.00 400.00,442.99 400.00,442.99
             400.00,442.99 350.58,492.17 350.58,492.17
             350.58,492.17 296.42,546.28 296.42,546.28
             296.42,546.28 200.00,643.00 200.00,643.00
             200.00,643.00 1058.00,643.00 1058.00,643.00
             1058.00,643.00 1267.00,643.00 1267.00,643.00
             1296.22,643.05 1317.33,664.91 1317.00,694.00
             1316.68,721.59 1294.00,741.96 1267.00,742.00
             1267.00,742.00 205.00,742.00 205.00,742.00 Z" />
</svg>
