<?xml version="1.0" encoding="UTF-8" standalone="no"?>
<!DOCTYPE svg PUBLIC "-//W3C//DTD SVG 20010904//EN"
              "http://www.w3.org/TR/2001/REC-SVG-20010904/DTD/svg10.dtd">

<svg xmlns="http://www.w3.org/2000/svg"
     width="114.3mm" height="114.3mm"
     viewBox="0 0 1350 1350">
  <path id="Sélection"
        fill="#333333" stroke="#333333" stroke-width="1"
        d="M 78.00,221.51
           C 78.00,221.51 114.00,221.00 114.00,221.00
             114.00,221.00 182.00,221.00 182.00,221.00
             182.00,221.00 392.00,221.00 392.00,221.00
             392.00,221.00 1041.00,221.00 1041.00,221.00
             1041.00,221.00 1266.00,221.00 1266.00,221.00
             1293.93,221.04 1323.96,251.06 1324.00,279.00
             1324.00,279.00 1324.00,304.00 1324.00,304.00
             1323.90,312.53 1321.65,317.64 1317.62,325.00
             1314.97,329.84 1308.47,339.26 1304.53,342.96
             1292.94,353.86 1273.96,361.98 1258.00,362.00
             1258.00,362.00 311.00,362.00 311.00,362.00
             311.00,362.00 94.00,362.00 94.00,362.00
             78.75,361.98 59.67,354.09 48.58,343.63
             39.44,335.01 30.94,320.14 27.59,308.00
             25.58,300.69 25.92,292.54 26.00,285.00
             26.08,278.16 27.01,275.36 29.05,269.00
             36.40,246.01 54.36,227.51 78.00,221.51 Z
           M 82.42,611.68
           C 87.92,610.37 108.03,611.00 115.00,611.00
             115.00,611.00 180.00,611.00 180.00,611.00
             180.00,611.00 386.00,611.00 386.00,611.00
             386.00,611.00 1044.00,611.00 1044.00,611.00
             1044.00,611.00 1255.00,611.00 1255.00,611.00
             1262.88,611.02 1260.31,611.38 1267.00,612.78
             1293.29,618.28 1313.88,636.82 1321.22,663.00
             1323.28,670.34 1323.09,680.34 1323.00,688.00
             1322.59,722.88 1289.47,753.95 1255.00,754.00
             1255.00,754.00 309.00,754.00 309.00,754.00
             309.00,754.00 90.00,754.00 90.00,754.00
             59.24,753.95 24.05,726.05 24.00,694.00
             24.00,694.00 24.00,670.00 24.00,670.00
             24.24,650.07 40.01,629.74 57.00,620.45
             69.45,613.65 72.21,615.17 82.42,611.68 Z
           M 89.00,986.07
           C 89.00,986.07 126.00,986.07 126.00,986.07
             126.00,986.07 194.00,986.07 194.00,986.07
             194.00,986.07 402.00,986.07 402.00,986.07
             402.00,986.07 1036.00,986.07 1036.00,986.07
             1036.00,986.07 1248.00,986.07 1248.00,986.07
             1263.55,986.02 1275.52,991.15 1288.00,1000.09
             1290.76,1002.07 1293.47,1003.68 1295.90,1006.10
             1303.23,1013.44 1312.01,1029.80 1314.56,1040.00
             1316.35,1047.17 1316.08,1055.61 1316.00,1063.00
             1315.82,1078.22 1307.00,1096.88 1296.79,1107.95
             1294.25,1110.71 1291.94,1111.94 1289.00,1114.08
             1278.07,1122.04 1269.87,1126.98 1256.00,1127.00
             1256.00,1127.00 313.00,1127.00 313.00,1127.00
             313.00,1127.00 89.00,1127.00 89.00,1127.00
             60.05,1126.95 36.45,1099.54 30.17,1073.00
             28.60,1066.38 28.92,1058.81 29.00,1052.00
             29.17,1037.57 35.86,1024.55 43.95,1013.00
             45.98,1010.10 47.41,1007.65 50.05,1005.21
             59.46,996.53 76.32,988.38 89.00,986.07 Z" />
</svg>
