<?xml version="1.0" encoding="UTF-8" standalone="no"?>
<!DOCTYPE svg PUBLIC "-//W3C//DTD SVG 20010904//EN"
              "http://www.w3.org/TR/2001/REC-SVG-20010904/DTD/svg10.dtd">

<svg xmlns="http://www.w3.org/2000/svg"
     width="114.3mm" height="114.3mm"
     viewBox="0 0 1350 1350">
  <path id="Sélection"
        fill="#333333" stroke="#333333" stroke-width="1"
        d="M 1172.00,95.00
           C 1172.64,90.21 1176.49,88.76 1179.63,85.57
             1179.63,85.57 1197.41,67.72 1197.41,67.72
             1210.60,54.20 1219.05,43.22 1237.96,37.33
             1244.80,35.21 1241.97,35.01 1250.00,35.00
             1250.00,35.00 1269.00,35.00 1269.00,35.00
             1277.11,35.01 1282.01,37.33 1289.16,40.84
             1295.33,43.85 1301.31,47.37 1306.37,52.09
             1315.46,60.56 1324.98,78.51 1325.00,91.00
             1325.00,91.00 1325.00,110.00 1325.00,110.00
             1324.98,123.07 1316.63,137.84 1308.03,147.37
             1308.03,147.37 1300.58,154.61 1300.58,154.61
             1300.58,154.61 1275.18,179.67 1275.18,179.67
             1271.68,182.89 1269.95,187.34 1265.00,188.00
             1262.73,194.53 1259.65,194.99 1255.37,199.46
             1255.37,199.46 1247.17,207.71 1247.17,207.71
             1247.17,207.71 1242.30,213.16 1242.30,213.16
             1242.30,213.16 1232.76,222.76 1232.76,222.76
             1232.76,222.76 1217.70,237.17 1217.70,237.17
             1217.70,237.17 1202.37,252.76 1202.37,252.76
             1200.91,253.25 1200.84,252.89 1200.00,252.76
             1197.62,259.83 1193.98,260.39 1189.67,265.23
             1189.67,265.23 1164.59,290.37 1164.59,290.37
             1160.13,294.75 1159.58,297.72 1153.00,300.00
             1152.40,304.49 1149.15,305.85 1146.09,308.73
             1146.09,308.73 1141.16,314.16 1141.16,314.16
             1141.16,314.16 1135.07,319.84 1135.07,319.84
             1132.42,322.82 1131.19,325.44 1127.00,326.00
             1124.72,332.58 1121.75,333.13 1117.37,337.59
             1117.37,337.59 1099.59,355.37 1099.59,355.37
             1095.13,359.75 1094.58,362.72 1088.00,365.00
             1087.80,366.02 1088.25,366.05 1087.25,367.83
             1087.25,367.83 1070.07,384.84 1070.07,384.84
             1067.42,387.82 1066.19,390.44 1062.00,391.00
             1059.71,397.60 1050.28,404.99 1045.09,409.90
             1045.09,409.90 1027.23,427.67 1027.23,427.67
             1022.32,432.07 1022.22,435.49 1015.00,438.00
             1014.44,442.19 1011.82,443.42 1008.84,446.07
             1008.84,446.07 991.83,463.27 991.83,463.27
             990.03,464.25 990.03,463.80 989.00,464.00
             986.72,470.58 983.75,471.13 979.37,475.59
             979.37,475.59 961.59,493.37 961.59,493.37
             957.13,497.75 956.58,500.72 950.00,503.00
             949.02,508.01 946.52,508.52 943.09,511.73
             943.09,511.73 926.83,528.27 926.83,528.27
             925.03,529.25 925.03,528.80 924.00,529.00
             921.54,536.09 911.70,543.16 906.37,548.59
             906.37,548.59 870.09,584.74 870.09,584.74
             870.09,584.74 853.83,601.27 853.83,601.27
             852.03,602.25 852.03,601.80 851.00,602.00
             848.98,607.81 838.07,617.20 833.17,621.71
             833.17,621.71 828.30,627.16 828.30,627.16
             828.30,627.16 823.46,631.37 823.46,631.37
             823.46,631.37 818.76,636.77 818.76,636.77
             818.76,636.77 810.00,645.67 810.00,645.67
             810.00,645.67 804.37,650.46 804.37,650.46
             804.37,650.46 788.83,666.27 788.83,666.27
             787.03,667.25 787.03,666.80 786.00,667.00
             784.03,672.68 772.68,684.03 767.00,686.00
             767.00,686.00 757.00,699.00 757.00,699.00
             762.99,701.56 771.28,711.48 776.04,716.49
             776.04,716.49 782.32,722.04 782.32,722.04
             782.32,722.04 795.37,735.57 795.37,735.57
             795.37,735.57 827.96,767.83 827.96,767.83
             827.96,767.83 841.75,782.22 841.75,782.22
             841.75,782.22 847.32,787.04 847.32,787.04
             847.32,787.04 864.96,804.83 864.96,804.83
             864.96,804.83 870.51,810.97 870.51,810.97
             870.51,810.97 909.96,849.68 909.96,849.68
             909.96,849.68 914.78,855.22 914.78,855.22
             914.78,855.22 920.32,860.04 920.32,860.04
             920.32,860.04 974.96,914.68 974.96,914.68
             974.96,914.68 979.78,920.22 979.78,920.22
             979.78,920.22 985.32,925.04 985.32,925.04
             985.32,925.04 1047.96,987.68 1047.96,987.68
             1047.96,987.68 1052.78,993.22 1052.78,993.22
             1052.78,993.22 1058.32,998.04 1058.32,998.04
             1058.32,998.04 1112.96,1052.68 1112.96,1052.68
             1112.96,1052.68 1117.78,1058.22 1117.78,1058.22
             1117.78,1058.22 1123.32,1063.04 1123.32,1063.04
             1123.32,1063.04 1145.28,1085.57 1145.28,1085.57
             1145.28,1085.57 1161.51,1101.94 1161.51,1101.94
             1161.51,1101.94 1177.04,1116.83 1177.04,1116.83
             1177.04,1116.83 1190.78,1131.25 1190.78,1131.25
             1190.78,1131.25 1205.17,1145.04 1205.17,1145.04
             1205.17,1145.04 1227.31,1167.81 1227.31,1167.81
             1227.31,1167.81 1233.17,1173.04 1233.17,1173.04
             1233.17,1173.04 1247.84,1187.93 1247.84,1187.93
             1247.84,1187.93 1255.78,1196.25 1255.78,1196.25
             1263.25,1203.92 1264.29,1203.13 1270.50,1213.72
             1272.83,1217.69 1275.84,1222.33 1275.00,1227.00
             1278.01,1229.48 1277.41,1231.38 1278.22,1234.91
             1280.31,1244.00 1280.14,1243.44 1280.00,1253.00
             1279.91,1258.97 1279.30,1257.37 1278.22,1262.09
             1278.22,1262.09 1276.53,1270.00 1276.53,1270.00
             1271.83,1284.51 1260.94,1298.27 1247.72,1305.86
             1240.16,1310.19 1230.74,1313.99 1222.00,1314.00
             1222.00,1314.00 1204.00,1314.00 1204.00,1314.00
             1190.54,1313.97 1176.58,1305.82 1166.44,1297.41
             1166.44,1297.41 1155.30,1286.38 1155.30,1286.38
             1155.30,1286.38 1151.37,1281.45 1151.37,1281.45
             1151.37,1281.45 1146.55,1277.45 1146.55,1277.45
             1146.55,1277.45 1141.78,1271.95 1141.78,1271.95
             1141.78,1271.95 1123.72,1254.43 1123.72,1254.43
             1123.72,1254.43 1118.32,1249.38 1118.32,1249.38
             1118.32,1249.38 1115.20,1245.22 1115.20,1245.22
             1111.51,1240.95 1107.97,1241.61 1107.00,1235.00
             1100.27,1232.97 1100.15,1230.91 1095.62,1226.38
             1095.62,1226.38 1089.59,1220.56 1089.59,1220.56
             1089.59,1220.56 1085.63,1215.74 1085.63,1215.74
             1085.63,1215.74 1081.55,1212.45 1081.55,1212.45
             1081.55,1212.45 1077.55,1207.63 1077.55,1207.63
             1077.55,1207.63 1071.83,1202.96 1071.83,1202.96
             1071.83,1202.96 1058.63,1189.39 1058.63,1189.39
             1058.63,1189.39 1046.04,1177.17 1046.04,1177.17
             1046.04,1177.17 1041.37,1171.45 1041.37,1171.45
             1041.37,1171.45 1036.55,1167.45 1036.55,1167.45
             1036.55,1167.45 1033.26,1163.37 1033.26,1163.37
             1033.26,1163.37 1028.44,1159.41 1028.44,1159.41
             1028.44,1159.41 1022.62,1153.38 1022.62,1153.38
             1018.09,1148.85 1016.03,1148.73 1014.00,1142.00
             1007.39,1141.03 1008.05,1137.49 1003.78,1133.80
             1003.78,1133.80 999.62,1130.68 999.62,1130.68
             999.62,1130.68 993.74,1124.39 993.74,1124.39
             993.74,1124.39 981.05,1112.17 981.05,1112.17
             981.05,1112.17 977.20,1107.22 977.20,1107.22
             977.20,1107.22 971.55,1102.45 971.55,1102.45
             971.55,1102.45 967.55,1097.63 967.55,1097.63
             967.55,1097.63 962.62,1093.70 962.62,1093.70
             962.62,1093.70 953.04,1084.17 953.04,1084.17
             953.04,1084.17 948.37,1078.45 948.37,1078.45
             948.37,1078.45 942.83,1073.67 942.83,1073.67
             942.83,1073.67 939.55,1069.49 939.55,1069.49
             939.55,1069.49 933.83,1064.95 933.83,1064.95
             933.83,1064.95 921.57,1052.28 921.57,1052.28
             921.57,1052.28 908.04,1039.17 908.04,1039.17
             908.04,1039.17 903.37,1033.45 903.37,1033.45
             903.37,1033.45 898.55,1029.45 898.55,1029.45
             898.55,1029.45 894.55,1024.63 894.55,1024.63
             894.55,1024.63 889.62,1020.70 889.62,1020.70
             889.62,1020.70 884.62,1015.38 884.62,1015.38
             880.09,1010.85 878.03,1010.73 876.00,1004.00
             869.74,1003.09 870.36,1000.26 866.55,996.49
             863.66,993.63 863.35,994.80 857.96,988.81
             857.96,988.81 843.04,974.17 843.04,974.17
             843.04,974.17 838.37,968.45 838.37,968.45
             838.37,968.45 833.55,964.45 833.55,964.45
             833.55,964.45 829.55,959.63 829.55,959.63
             823.52,953.77 813.49,947.25 811.00,939.00
             804.74,938.09 805.36,935.26 801.55,931.49
             801.55,931.49 793.00,925.00 793.00,925.00
             793.00,925.00 794.00,922.00 794.00,922.00
             789.27,920.61 786.95,918.99 786.00,914.00
             778.69,911.80 778.32,908.72 773.16,904.03
             766.77,898.21 768.44,898.61 765.37,895.45
             765.37,895.45 760.55,891.45 760.55,891.45
             760.55,891.45 756.55,886.63 756.55,886.63
             750.52,880.77 740.49,874.25 738.00,866.00
             731.81,865.09 732.30,862.28 728.53,858.45
             724.85,854.70 722.11,854.88 721.00,849.00
             713.69,846.80 713.32,843.72 708.16,839.03
             701.77,833.21 703.44,833.61 700.37,830.45
             700.37,830.45 695.55,826.45 695.55,826.45
             695.55,826.45 691.55,821.63 691.55,821.63
             685.52,815.77 675.49,809.25 673.00,801.00
             667.29,800.17 665.93,796.99 664.00,792.00
             664.00,792.00 640.74,814.66 640.74,814.66
             636.51,818.75 634.83,821.98 629.00,824.00
             628.80,825.03 629.25,825.03 628.27,826.83
             628.27,826.83 612.45,842.45 612.45,842.45
             612.45,842.45 608.74,846.97 608.74,846.97
             608.74,846.97 599.87,855.83 599.87,855.83
             599.87,855.83 593.37,861.59 593.37,861.59
             593.37,861.59 589.16,866.30 589.16,866.30
             589.16,866.30 583.71,871.17 583.71,871.17
             579.20,876.07 569.81,886.98 564.00,889.00
             564.00,889.00 563.27,891.83 563.27,891.83
             563.27,891.83 548.26,906.71 548.26,906.71
             548.26,906.71 543.74,911.97 543.74,911.97
             543.74,911.97 533.91,921.90 533.91,921.90
             533.91,921.90 518.71,936.17 518.71,936.17
             518.71,936.17 488.91,966.88 488.91,966.88
             488.91,966.88 483.45,971.45 483.45,971.45
             483.45,971.45 478.88,976.74 478.88,976.74
             478.88,976.74 474.45,980.45 474.45,980.45
             474.45,980.45 469.88,985.91 469.88,985.91
             469.88,985.91 455.45,999.59 455.45,999.59
             455.45,999.59 451.74,1003.89 451.74,1003.89
             451.74,1003.89 446.45,1008.45 446.45,1008.45
             446.45,1008.45 432.90,1022.91 432.90,1022.91
             432.90,1022.91 422.97,1032.74 422.97,1032.74
             422.97,1032.74 418.45,1036.45 418.45,1036.45
             418.45,1036.45 413.88,1041.74 413.88,1041.74
             413.88,1041.74 409.45,1045.45 409.45,1045.45
             409.45,1045.45 405.74,1049.97 405.74,1049.97
             405.74,1049.97 395.91,1059.90 395.91,1059.90
             395.91,1059.90 381.45,1073.45 381.45,1073.45
             381.45,1073.45 377.75,1077.88 377.75,1077.88
             377.75,1077.88 364.59,1090.45 364.59,1090.45
             364.59,1090.45 359.90,1095.91 359.90,1095.91
             359.90,1095.91 349.97,1105.74 349.97,1105.74
             349.97,1105.74 345.45,1109.45 345.45,1109.45
             345.45,1109.45 329.98,1125.23 329.98,1125.23
             329.98,1125.23 327.00,1126.00 327.00,1126.00
             324.57,1133.14 322.20,1132.94 317.45,1137.59
             317.45,1137.59 312.88,1142.75 312.88,1142.75
             312.88,1142.75 299.59,1155.45 299.59,1155.45
             299.59,1155.45 285.91,1169.88 285.91,1169.88
             285.91,1169.88 280.45,1174.45 280.45,1174.45
             280.45,1174.45 275.88,1179.74 275.88,1179.74
             275.88,1179.74 271.45,1183.45 271.45,1183.45
             271.45,1183.45 267.74,1187.97 267.74,1187.97
             267.74,1187.97 257.91,1197.90 257.91,1197.90
             257.91,1197.90 252.45,1202.59 252.45,1202.59
             252.45,1202.59 248.74,1206.89 248.74,1206.89
             248.74,1206.89 243.45,1211.45 243.45,1211.45
             243.45,1211.45 231.75,1223.89 231.75,1223.89
             231.75,1223.89 225.86,1229.26 225.86,1229.26
             225.86,1229.26 212.91,1242.88 212.91,1242.88
             212.91,1242.88 207.45,1247.45 207.45,1247.45
             207.45,1247.45 203.74,1251.88 203.74,1251.88
             203.74,1251.88 199.26,1255.71 199.26,1255.71
             195.16,1259.40 195.12,1262.84 189.00,1264.00
             187.08,1269.63 183.63,1273.08 178.00,1275.00
             176.84,1281.12 173.40,1281.16 169.71,1285.26
             169.71,1285.26 165.89,1289.74 165.89,1289.74
             159.44,1295.90 144.70,1304.64 135.96,1306.53
             128.74,1308.10 121.35,1308.08 114.00,1308.00
             80.16,1307.60 52.05,1277.42 52.00,1244.00
             51.99,1238.02 51.80,1231.07 53.42,1225.28
             60.60,1199.62 77.79,1187.71 95.45,1169.71
             95.45,1169.71 116.68,1148.04 116.68,1148.04
             116.68,1148.04 122.22,1143.22 122.22,1143.22
             122.22,1143.22 127.04,1137.68 127.04,1137.68
             127.04,1137.68 156.82,1108.45 156.82,1108.45
             156.82,1108.45 162.38,1102.37 162.38,1102.37
             162.38,1102.37 184.82,1080.33 184.82,1080.33
             189.61,1075.93 190.00,1073.05 197.00,1070.00
             197.00,1070.00 196.00,1068.00 196.00,1068.00
             196.00,1068.00 227.38,1037.37 227.38,1037.37
             227.38,1037.37 241.63,1023.57 241.63,1023.57
             246.80,1018.32 255.67,1007.76 262.00,1005.00
             262.00,1005.00 261.00,1003.00 261.00,1003.00
             261.00,1003.00 290.83,974.04 290.83,974.04
             290.83,974.04 336.49,928.13 336.49,928.13
             336.49,928.13 351.62,913.62 351.62,913.62
             351.62,913.62 365.38,899.24 365.38,899.24
             365.38,899.24 388.57,876.63 388.57,876.63
             388.57,876.63 408.74,855.85 408.74,855.85
             408.74,855.85 415.72,849.57 415.72,849.57
             415.72,849.57 438.38,826.24 438.38,826.24
             438.38,826.24 452.63,812.57 452.63,812.57
             452.63,812.57 480.72,784.57 480.72,784.57
             480.72,784.57 503.38,761.24 503.38,761.24
             503.38,761.24 535.41,729.72 535.41,729.72
             535.41,729.72 553.72,711.42 553.72,711.42
             553.72,711.42 567.00,699.00 567.00,699.00
             561.69,690.78 563.08,694.04 557.55,688.45
             557.55,688.45 553.55,683.49 553.55,683.49
             553.55,683.49 548.62,679.68 548.62,679.68
             548.62,679.68 544.31,675.09 544.31,675.09
             539.70,670.21 537.15,670.14 535.00,663.00
             529.17,661.90 529.26,659.16 525.55,655.45
             521.84,651.74 519.10,651.83 518.00,646.00
             511.15,644.26 512.76,642.72 508.55,638.63
             508.55,638.63 502.07,633.19 502.07,633.19
             502.07,633.19 493.30,624.38 493.30,624.38
             493.30,624.38 489.37,619.45 489.37,619.45
             489.37,619.45 484.55,615.45 484.55,615.45
             484.55,615.45 480.55,610.49 480.55,610.49
             480.55,610.49 475.62,606.68 475.62,606.68
             471.56,603.12 463.65,594.85 462.00,590.00
             456.12,588.89 456.30,586.15 452.55,582.47
             452.55,582.47 447.55,578.45 447.55,578.45
             447.55,578.45 444.26,574.37 444.26,574.37
             444.26,574.37 438.62,569.70 438.62,569.70
             438.62,569.70 429.04,560.17 429.04,560.17
             429.04,560.17 424.37,554.45 424.37,554.45
             424.37,554.45 419.55,550.45 419.55,550.45
             419.55,550.45 414.78,544.80 414.78,544.80
             408.95,539.76 399.48,532.28 397.00,525.00
             395.10,524.64 394.83,524.88 393.05,523.59
             393.05,523.59 380.00,510.26 380.00,510.26
             380.00,510.26 374.55,505.45 374.55,505.45
             374.55,505.45 370.55,500.63 370.55,500.63
             370.55,500.63 364.83,495.96 364.83,495.96
             364.83,495.96 355.30,486.38 355.30,486.38
             355.30,486.38 350.63,480.74 350.63,480.74
             350.63,480.74 346.55,477.45 346.55,477.45
             346.55,477.45 342.53,472.45 342.53,472.45
             338.85,468.70 336.11,468.88 335.00,463.00
             329.27,461.05 325.95,457.73 324.00,452.00
             317.71,450.81 317.45,446.70 312.91,443.09
             306.86,438.26 309.29,439.26 305.55,435.63
             305.55,435.63 299.83,430.96 299.83,430.96
             299.83,430.96 290.30,421.38 290.30,421.38
             290.30,421.38 286.37,416.44 286.37,416.44
             286.37,416.44 280.45,410.97 280.45,410.97
             280.45,410.97 277.55,407.45 277.55,407.45
             273.84,403.75 271.10,403.82 270.00,398.00
             264.37,396.08 260.92,392.63 259.00,387.00
             252.64,385.80 246.57,376.99 242.29,372.26
             240.15,369.89 239.24,369.84 237.33,368.17
             237.33,368.17 232.55,362.63 232.55,362.63
             232.55,362.63 226.83,357.96 226.83,357.96
             226.83,357.96 212.63,342.71 212.63,342.71
             212.63,342.71 198.41,328.95 198.41,328.95
             197.12,327.17 197.36,326.90 197.00,325.00
             189.90,322.58 182.36,312.90 177.29,307.26
             177.29,307.26 172.12,302.75 172.12,302.75
             172.12,302.75 167.55,297.59 167.55,297.59
             167.55,297.59 162.09,292.90 162.09,292.90
             162.09,292.90 152.21,282.97 152.21,282.97
             152.21,282.97 147.63,277.71 147.63,277.71
             147.63,277.71 133.41,263.95 133.41,263.95
             132.12,262.17 132.36,261.90 132.00,260.00
             126.56,258.14 122.86,254.44 121.00,249.00
             114.67,247.80 108.54,238.99 104.29,234.26
             104.29,234.26 99.12,229.74 99.12,229.74
             99.12,229.74 94.55,224.45 94.55,224.45
             94.55,224.45 84.72,215.28 84.72,215.28
             84.72,215.28 75.41,205.45 75.41,205.45
             75.41,205.45 70.25,200.88 70.25,200.88
             70.25,200.88 66.55,196.45 66.55,196.45
             66.55,196.45 61.26,191.89 61.26,191.89
             61.26,191.89 57.55,187.59 57.55,187.59
             57.55,187.59 52.09,182.90 52.09,182.90
             40.66,171.84 32.13,162.45 27.33,147.04
             25.21,140.20 25.01,143.03 25.00,135.00
             25.00,135.00 25.00,117.00 25.00,117.00
             25.02,109.21 27.44,102.74 30.90,95.84
             38.76,80.12 50.45,69.00 67.17,62.95
             67.17,62.95 76.91,60.78 76.91,60.78
             81.63,59.70 80.03,59.09 86.00,59.00
             86.00,59.00 94.00,59.00 94.00,59.00
             105.15,59.07 120.44,64.87 129.72,71.08
             129.72,71.08 179.00,118.00 179.00,118.00
             179.00,118.00 178.00,120.00 178.00,120.00
             185.00,123.05 185.39,125.93 190.18,130.33
             190.18,130.33 215.28,155.42 215.28,155.42
             215.28,155.42 290.43,230.72 290.43,230.72
             290.43,230.72 332.16,271.84 332.16,271.84
             332.16,271.84 385.96,325.68 385.96,325.68
             385.96,325.68 390.78,331.22 390.78,331.22
             390.78,331.22 396.32,336.04 396.32,336.04
             396.32,336.04 442.16,381.84 442.16,381.84
             442.16,381.84 455.78,396.22 455.78,396.22
             455.78,396.22 461.32,401.04 461.32,401.04
             461.32,401.04 491.28,431.57 491.28,431.57
             491.28,431.57 515.16,454.84 515.16,454.84
             515.16,454.84 542.38,482.28 542.38,482.28
             542.38,482.28 556.28,496.57 556.28,496.57
             556.28,496.57 633.11,572.94 633.11,572.94
             633.11,572.94 638.75,579.22 638.75,579.22
             638.75,579.22 653.91,593.62 653.91,593.62
             655.94,595.78 659.66,601.02 662.96,600.86
             665.08,600.76 666.61,598.23 667.94,596.81
             667.94,596.81 677.49,587.13 677.49,587.13
             677.49,587.13 717.00,547.00 717.00,547.00
             717.00,547.00 719.00,548.00 719.00,548.00
             719.00,548.00 721.00,546.00 721.00,546.00
             721.00,546.00 720.00,544.00 720.00,544.00
             720.00,544.00 751.38,513.24 751.38,513.24
             751.38,513.24 782.00,482.00 782.00,482.00
             782.00,482.00 784.00,483.00 784.00,483.00
             784.00,483.00 786.00,481.00 786.00,481.00
             786.00,481.00 785.00,479.00 785.00,479.00
             795.10,471.13 807.05,457.63 816.23,448.24
             816.23,448.24 838.63,426.57 838.63,426.57
             838.63,426.57 884.42,380.63 884.42,380.63
             884.42,380.63 911.82,353.33 911.82,353.33
             915.32,350.11 917.05,345.66 922.00,345.00
             924.24,338.58 927.31,337.95 931.63,333.57
             931.63,333.57 939.83,325.30 939.83,325.30
             939.83,325.30 945.46,319.09 945.46,319.09
             945.46,319.09 967.72,297.41 967.72,297.41
             967.72,297.41 980.84,283.84 980.84,283.84
             980.84,283.84 1022.54,242.63 1022.54,242.63
             1022.54,242.63 1028.13,236.49 1028.13,236.49
             1028.13,236.49 1068.91,196.26 1068.91,196.26
             1068.91,196.26 1073.84,190.70 1073.84,190.70
             1073.84,190.70 1094.82,170.33 1094.82,170.33
             1099.57,165.97 1100.26,162.35 1107.24,160.00
             1107.11,159.16 1106.75,159.09 1107.24,157.63
             1107.24,157.63 1122.82,142.33 1122.82,142.33
             1122.82,142.33 1137.24,127.24 1137.24,127.24
             1137.24,127.24 1146.84,117.70 1146.84,117.70
             1146.84,117.70 1152.29,112.83 1152.29,112.83
             1152.29,112.83 1160.54,104.63 1160.54,104.63
             1165.01,100.35 1165.47,97.27 1172.00,95.00 Z" />
</svg>
