<?xml version="1.0" encoding="UTF-8" standalone="no"?>
<!DOCTYPE svg PUBLIC "-//W3C//DTD SVG 20010904//EN"
              "http://www.w3.org/TR/2001/REC-SVG-20010904/DTD/svg10.dtd">

<svg xmlns="http://www.w3.org/2000/svg"
     width="3mm" height="3mm"
     viewBox="0 0 1350 1350">
  <path id="Sélection"
        fill="#333333" stroke="#333333" stroke-width="1"
        d="M 87.00,224.07
           C 87.00,224.07 124.00,224.07 124.00,224.07
             124.00,224.07 192.00,224.07 192.00,224.07
             192.00,224.07 401.00,224.07 401.00,224.07
             401.00,224.07 1039.00,224.07 1039.00,224.07
             1039.00,224.07 1249.00,224.07 1249.00,224.07
             1260.30,224.02 1268.98,226.67 1279.00,231.76
             1306.47,245.69 1320.36,267.29 1320.00,298.00
             1319.86,309.50 1314.73,323.59 1308.23,333.00
             1308.23,333.00 1297.24,347.00 1297.24,347.00
             1297.24,347.00 1273.18,377.00 1273.18,377.00
             1273.18,377.00 1266.52,386.00 1266.52,386.00
             1266.52,386.00 1248.20,410.00 1248.20,410.00
             1248.20,410.00 1191.24,482.00 1191.24,482.00
             1191.24,482.00 1182.38,494.00 1182.38,494.00
             1182.38,494.00 1173.52,504.00 1173.52,504.00
             1173.52,504.00 1150.99,534.00 1150.99,534.00
             1150.99,534.00 1118.01,575.00 1118.01,575.00
             1118.01,575.00 1085.99,617.00 1085.99,617.00
             1085.99,617.00 1075.52,629.00 1075.52,629.00
             1075.52,629.00 1052.99,659.00 1052.99,659.00
             1052.99,659.00 1020.01,700.00 1020.01,700.00
             1020.01,700.00 1012.76,710.00 1012.76,710.00
             1012.76,710.00 995.24,732.00 995.24,732.00
             995.24,732.00 987.19,743.00 987.19,743.00
             987.19,743.00 977.52,754.00 977.52,754.00
             977.52,754.00 946.20,795.00 946.20,795.00
             946.20,795.00 849.76,918.00 849.76,918.00
             849.76,918.00 839.32,930.00 839.32,930.00
             839.32,930.00 832.76,939.00 832.76,939.00
             832.76,939.00 821.03,954.00 821.03,954.00
             821.03,954.00 789.40,994.00 789.40,994.00
             789.40,994.00 750.99,1044.00 750.99,1044.00
             750.99,1044.00 740.52,1056.00 740.52,1056.00
             740.52,1056.00 733.99,1065.00 733.99,1065.00
             733.99,1065.00 717.24,1086.00 717.24,1086.00
             712.41,1092.32 709.14,1098.23 702.99,1103.71
             687.63,1117.39 666.22,1123.23 646.00,1123.00
             630.78,1122.82 612.77,1114.59 602.09,1103.91
             594.93,1096.76 580.48,1075.21 574.46,1066.00
             574.46,1066.00 564.48,1053.00 564.48,1053.00
             564.48,1053.00 548.49,1031.00 548.49,1031.00
             548.49,1031.00 542.08,1021.00 542.08,1021.00
             542.08,1021.00 532.74,1009.00 532.74,1009.00
             532.74,1009.00 516.77,987.00 516.77,987.00
             516.77,987.00 511.08,978.00 511.08,978.00
             511.08,978.00 490.26,950.00 490.26,950.00
             490.26,950.00 382.26,800.00 382.26,800.00
             382.26,800.00 362.49,774.00 362.49,774.00
             362.49,774.00 351.26,757.00 351.26,757.00
             351.26,757.00 266.26,639.00 266.26,639.00
             266.26,639.00 246.49,613.00 246.49,613.00
             246.49,613.00 235.97,597.00 235.97,597.00
             235.97,597.00 215.49,570.00 215.49,570.00
             215.49,570.00 204.26,553.00 204.26,553.00
             204.26,553.00 184.49,527.00 184.49,527.00
             184.49,527.00 178.80,518.00 178.80,518.00
             178.80,518.00 165.26,499.00 165.26,499.00
             165.26,499.00 152.77,483.00 152.77,483.00
             152.77,483.00 142.26,467.00 142.26,467.00
             142.26,467.00 122.49,441.00 122.49,441.00
             122.49,441.00 111.97,425.00 111.97,425.00
             111.97,425.00 100.24,410.00 100.24,410.00
             100.24,410.00 79.52,380.00 79.52,380.00
             79.52,380.00 67.77,365.00 67.77,365.00
             67.77,365.00 56.52,348.00 56.52,348.00
             56.52,348.00 40.47,327.00 40.47,327.00
             29.67,309.48 26.76,288.59 33.36,269.00
             34.98,264.17 38.90,256.16 41.77,252.00
             46.46,245.23 52.10,239.61 59.00,235.10
             67.57,229.50 77.01,226.28 87.00,224.07 Z" />
</svg>
