<?xml version="1.0" encoding="UTF-8" standalone="no"?>
<!DOCTYPE svg PUBLIC "-//W3C//DTD SVG 20010904//EN"
              "http://www.w3.org/TR/2001/REC-SVG-20010904/DTD/svg10.dtd">

<svg xmlns="http://www.w3.org/2000/svg"
     width="114.3mm" height="114.3mm"
     viewBox="0 0 1350 1350">
  <path id="Sélection"
        fill="#333333" stroke="#333333" stroke-width="1"
        d="M 1233.00,191.00
           C 1233.00,191.00 1250.28,184.22 1250.28,184.22
             1250.28,184.22 1273.00,184.22 1273.00,184.22
             1284.75,184.02 1290.80,190.07 1297.00,191.00
             1297.00,191.00 1307.91,200.09 1307.91,200.09
             1307.91,200.09 1317.00,211.00 1317.00,211.00
             1317.00,211.00 1323.78,228.28 1323.78,228.28
             1323.78,228.28 1323.78,251.00 1323.78,251.00
             1323.98,262.75 1317.93,268.80 1317.00,275.00
             1313.53,278.17 1312.62,280.60 1309.70,283.99
             1309.70,283.99 1300.20,293.78 1300.20,293.78
             1300.20,293.78 1279.29,314.17 1279.29,314.17
             1279.29,314.17 1255.17,338.29 1255.17,338.29
             1255.17,338.29 1249.55,344.55 1249.55,344.55
             1249.55,344.55 1161.55,432.55 1161.55,432.55
             1161.55,432.55 1155.29,438.17 1155.29,438.17
             1155.29,438.17 1136.55,457.55 1136.55,457.55
             1136.55,457.55 1130.29,463.17 1130.29,463.17
             1130.29,463.17 1106.17,487.29 1106.17,487.29
             1106.17,487.29 1100.55,493.55 1100.55,493.55
             1100.55,493.55 994.49,599.63 994.49,599.63
             994.49,599.63 982.28,611.30 982.28,611.30
             982.28,611.30 962.55,631.55 962.55,631.55
             962.55,631.55 956.29,637.17 956.29,637.17
             956.29,637.17 870.49,723.63 870.49,723.63
             870.49,723.63 833.46,760.21 833.46,760.21
             833.46,760.21 755.05,839.05 755.05,839.05
             755.05,839.05 721.49,872.63 721.49,872.63
             721.49,872.63 709.46,884.21 709.46,884.21
             709.46,884.21 660.46,933.23 660.46,933.23
             660.46,933.23 614.63,979.49 614.63,979.49
             614.63,979.49 561.44,1032.33 561.44,1032.33
             561.44,1032.33 549.20,1045.05 549.20,1045.05
             549.20,1045.05 501.42,1092.37 501.42,1092.37
             501.42,1092.37 461.46,1132.23 461.46,1132.23
             461.46,1132.23 445.87,1147.98 445.87,1147.98
             437.19,1155.15 418.27,1164.93 407.00,1165.00
             407.00,1165.00 389.00,1165.00 389.00,1165.00
             384.05,1164.92 371.71,1161.03 369.00,1157.00
             360.37,1155.79 353.58,1146.71 348.91,1140.00
             348.91,1140.00 327.66,1105.00 327.66,1105.00
             325.41,1101.24 319.38,1090.23 317.00,1088.00
             317.00,1088.00 309.31,1074.00 309.31,1074.00
             309.31,1074.00 297.49,1053.83 297.49,1053.83
             297.49,1053.83 294.38,1046.04 294.38,1046.04
             294.38,1046.04 286.00,1033.00 286.00,1033.00
             286.00,1033.00 287.00,1031.00 287.00,1031.00
             283.65,1028.85 282.32,1025.33 280.13,1022.00
             280.13,1022.00 269.29,1003.17 269.29,1003.17
             266.06,998.13 262.52,994.32 262.00,988.00
             256.12,984.53 252.57,974.11 248.86,968.42
             248.86,968.42 240.51,954.91 240.51,954.91
             240.51,954.91 233.65,941.04 233.65,941.04
             233.65,941.04 230.03,935.72 230.03,935.72
             230.03,935.72 225.83,927.09 225.83,927.09
             225.83,927.09 214.49,908.00 214.49,908.00
             210.90,901.64 200.47,887.61 200.00,881.00
             195.94,878.53 194.23,873.72 191.83,869.72
             191.83,869.72 179.98,849.72 179.98,849.72
             179.98,849.72 176.25,841.17 176.25,841.17
             173.38,836.31 169.38,832.02 169.00,826.00
             163.85,822.82 159.87,812.46 156.48,807.28
             156.48,807.28 147.51,792.83 147.51,792.83
             147.51,792.83 144.14,786.17 144.14,786.17
             144.14,786.17 136.14,773.72 136.14,773.72
             136.14,773.72 132.29,766.17 132.29,766.17
             127.89,758.87 119.39,747.59 119.00,739.00
             114.03,735.98 111.43,729.02 108.74,724.01
             108.74,724.01 103.50,715.91 103.50,715.91
             103.50,715.91 95.74,702.00 95.74,702.00
             95.74,702.00 78.79,673.91 78.79,673.91
             78.79,673.91 75.37,667.28 75.37,667.28
             75.37,667.28 66.94,653.91 66.94,653.91
             66.94,653.91 61.59,643.83 61.59,643.83
             61.59,643.83 58.65,637.04 58.65,637.04
             58.65,637.04 54.52,630.83 54.52,630.83
             54.52,630.83 51.29,624.17 51.29,624.17
             51.29,624.17 42.67,610.83 42.67,610.83
             39.70,605.17 35.49,596.42 31.00,592.00
             31.00,592.00 32.00,590.00 32.00,590.00
             28.30,587.51 27.98,584.02 26.55,580.04
             26.55,580.04 24.12,573.83 24.12,573.83
             24.12,573.83 24.12,551.00 24.12,551.00
             24.06,540.73 30.40,533.68 31.00,528.00
             36.13,523.31 37.77,516.37 45.00,515.00
             48.35,508.83 56.68,505.80 62.96,503.55
             62.96,503.55 69.17,501.15 69.17,501.15
             73.07,500.13 77.00,500.01 81.00,500.00
             86.30,499.99 91.65,499.79 96.83,501.15
             96.83,501.15 104.01,503.87 104.01,503.87
             109.99,505.91 117.88,509.25 121.00,515.00
             125.45,515.84 127.16,517.55 128.00,522.00
             132.58,524.49 135.79,530.51 138.37,535.00
             138.37,535.00 151.85,557.83 151.85,557.83
             154.29,561.76 158.68,568.52 159.00,573.00
             164.27,576.21 167.14,584.53 169.62,590.00
             171.38,593.88 182.24,612.42 185.00,615.00
             185.00,615.00 184.00,617.00 184.00,617.00
             187.85,619.39 189.64,623.58 190.00,628.00
             195.51,631.26 199.63,642.27 203.18,647.72
             203.18,647.72 214.54,667.00 214.54,667.00
             214.54,667.00 223.48,681.17 223.48,681.17
             223.48,681.17 228.06,691.58 228.06,691.58
             231.49,697.82 239.34,708.30 240.00,715.00
             244.95,718.01 247.78,724.95 250.42,729.99
             250.42,729.99 255.50,738.09 255.50,738.09
             255.50,738.09 263.34,752.00 263.34,752.00
             263.34,752.00 276.15,773.91 276.15,773.91
             276.15,773.91 280.36,780.09 280.36,780.09
             280.36,780.09 287.55,795.00 287.55,795.00
             287.55,795.00 303.98,822.28 303.98,822.28
             303.98,822.28 307.71,829.83 307.71,829.83
             307.71,829.83 315.87,842.28 315.87,842.28
             315.87,842.28 319.71,849.83 319.71,849.83
             322.42,854.33 326.27,858.72 327.00,864.00
             327.00,864.00 332.71,872.00 332.71,872.00
             332.71,872.00 341.51,886.17 341.51,886.17
             341.51,886.17 346.20,896.72 346.20,896.72
             346.20,896.72 357.15,915.91 357.15,915.91
             357.15,915.91 360.81,921.17 360.81,921.17
             360.81,921.17 376.63,948.72 376.63,948.72
             376.63,948.72 385.48,963.00 385.48,963.00
             385.48,963.00 388.89,969.83 388.89,969.83
             388.89,969.83 398.49,985.17 398.49,985.17
             398.49,985.17 404.67,998.01 404.67,998.01
             404.67,998.01 411.00,1011.00 411.00,1011.00
             411.00,1011.00 417.56,1005.55 417.56,1005.55
             420.65,1002.42 421.19,999.63 426.00,999.00
             428.51,991.92 437.28,985.82 442.55,980.55
             447.82,975.28 453.92,966.51 461.00,964.00
             461.64,959.17 464.43,958.67 467.55,955.55
             467.55,955.55 478.21,944.40 478.21,944.40
             478.21,944.40 491.56,931.55 491.56,931.55
             491.56,931.55 511.66,910.95 511.66,910.95
             511.66,910.95 528.09,894.46 528.09,894.46
             528.09,894.46 541.56,881.55 541.56,881.55
             544.64,878.42 545.20,875.63 550.00,875.00
             552.45,867.90 561.27,861.84 566.55,856.55
             569.67,853.43 570.17,850.64 575.00,850.00
             576.99,844.23 579.45,843.25 583.53,839.11
             583.53,839.11 600.65,821.99 600.65,821.99
             600.65,821.99 623.55,799.56 623.55,799.56
             623.55,799.56 634.89,787.61 634.89,787.61
             634.89,787.61 640.56,782.55 640.56,782.55
             640.56,782.55 644.25,778.25 644.25,778.25
             644.25,778.25 648.55,774.56 648.55,774.56
             648.55,774.56 660.17,762.11 660.17,762.11
             660.17,762.11 666.29,756.75 666.29,756.75
             666.29,756.75 689.74,733.29 689.74,733.29
             693.56,729.85 693.33,727.08 699.00,726.00
             701.65,718.34 710.00,713.09 715.55,707.55
             719.00,704.10 718.62,702.03 724.00,701.00
             725.73,695.12 735.20,685.98 741.00,684.00
             742.03,678.62 744.10,679.00 747.55,675.55
             753.23,669.86 758.10,661.70 766.00,659.00
             767.03,653.62 769.10,654.00 772.55,650.55
             778.23,644.86 783.10,636.70 791.00,634.00
             791.00,634.00 791.77,631.05 791.77,631.05
             791.77,631.05 803.01,619.28 803.01,619.28
             803.01,619.28 814.55,608.55 814.55,608.55
             814.55,608.55 833.28,589.01 833.28,589.01
             833.28,589.01 845.05,577.77 845.05,577.77
             845.05,577.77 848.00,577.00 848.00,577.00
             850.30,569.20 865.41,557.68 871.55,551.55
             871.55,551.55 876.11,546.17 876.11,546.17
             876.11,546.17 891.17,531.11 891.17,531.11
             891.17,531.11 896.55,526.55 896.55,526.55
             896.55,526.55 901.11,521.17 901.11,521.17
             901.11,521.17 920.74,502.29 920.74,502.29
             927.05,496.61 931.58,487.87 940.00,485.00
             941.03,479.62 943.10,480.00 946.55,476.55
             952.23,470.86 957.10,462.70 965.00,460.00
             965.99,454.81 968.00,454.99 971.29,451.55
             971.29,451.55 986.72,435.72 986.72,435.72
             986.72,435.72 995.55,427.55 995.55,427.55
             995.55,427.55 1000.11,422.17 1000.11,422.17
             1000.11,422.17 1015.17,407.11 1015.17,407.11
             1015.17,407.11 1020.55,402.55 1020.55,402.55
             1020.55,402.55 1025.11,397.17 1025.11,397.17
             1025.11,397.17 1044.74,378.29 1044.74,378.29
             1044.74,378.29 1050.11,372.17 1050.11,372.17
             1050.11,372.17 1065.17,357.11 1065.17,357.11
             1065.17,357.11 1070.55,352.55 1070.55,352.55
             1070.55,352.55 1075.11,347.17 1075.11,347.17
             1075.11,347.17 1094.55,328.29 1094.55,328.29
             1094.55,328.29 1107.07,315.16 1107.07,315.16
             1107.07,315.16 1119.55,303.55 1119.55,303.55
             1119.55,303.55 1124.11,298.17 1124.11,298.17
             1124.11,298.17 1139.17,283.11 1139.17,283.11
             1139.17,283.11 1144.55,278.55 1144.55,278.55
             1144.55,278.55 1149.11,273.17 1149.11,273.17
             1149.11,273.17 1164.17,258.11 1164.17,258.11
             1164.17,258.11 1169.55,253.55 1169.55,253.55
             1169.55,253.55 1182.07,240.16 1182.07,240.16
             1182.07,240.16 1194.55,228.55 1194.55,228.55
             1194.55,228.55 1206.16,216.07 1206.16,216.07
             1206.16,216.07 1223.04,199.17 1223.04,199.17
             1223.04,199.17 1233.00,191.00 1233.00,191.00 Z" />
</svg>
